<svg width="696" height="327" viewBox="0 0 696 327" fill="none" xmlns="http://www.w3.org/2000/svg">
<circle cx="131.779" cy="63.5" r="32.5" fill="#E40321"/>
<rect x="16.8125" y="64.6592" width="114.605" height="44.3759" rx="4" transform="rotate(22.2647 16.8125 64.6592)" fill="#76B729"/>
<rect x="46.5371" y="141.062" width="59.0158" height="58.1057" rx="4" transform="rotate(22.2647 46.5371 141.062)" fill="#015DAA"/>
<rect x="123.295" y="143" width="59.0158" height="58.1057" rx="4" transform="rotate(22.2647 123.295 143)" fill="#005DA8"/>
<path d="M240.579 130.85C252.179 130.85 257.979 126.55 257.979 117.95C257.979 114.45 257.079 111.7 255.279 109.7C253.579 107.7 250.379 105.95 245.679 104.45L233.379 100.4C218.679 95.6 211.329 85.95 211.329 71.45C211.329 63.05 213.929 56.15 219.129 50.75C224.429 45.25 232.679 42.5 243.879 42.5C248.579 42.5 253.229 43.05 257.829 44.15C262.429 45.15 267.329 46.8 272.529 49.1L266.979 64.55C262.179 62.65 258.079 61.3 254.679 60.5C251.379 59.6 247.979 59.15 244.479 59.15C239.879 59.15 236.229 60 233.529 61.7C230.929 63.3 229.629 66.25 229.629 70.55C229.629 73.75 230.529 76.4 232.329 78.5C234.229 80.5 237.329 82.2 241.629 83.6L253.929 87.65C261.329 90.15 266.879 93.8 270.579 98.6C274.379 103.3 276.279 109.55 276.279 117.35C276.279 126.35 273.429 133.65 267.729 139.25C262.029 144.75 253.079 147.5 240.879 147.5C236.079 147.5 231.079 146.95 225.879 145.85C220.779 144.65 215.179 142.65 209.079 139.85L214.629 124.4C220.229 126.8 224.979 128.5 228.879 129.5C232.879 130.4 236.779 130.85 240.579 130.85ZM355.866 146.75C350.766 146.75 346.666 145.7 343.566 143.6C340.566 141.5 338.366 138.9 336.966 135.8C332.666 139.8 328.516 142.75 324.516 144.65C320.516 146.55 316.216 147.5 311.616 147.5C304.916 147.5 299.966 145.35 296.766 141.05C293.666 136.75 292.116 131.3 292.116 124.7C292.116 120.3 292.916 116.45 294.516 113.15C296.216 109.75 298.966 107.1 302.766 105.2C306.566 103.3 311.766 102.35 318.366 102.35C320.966 102.35 323.666 102.55 326.466 102.95C329.266 103.25 332.066 103.65 334.866 104.15V95.3C334.866 91.1 333.716 88.25 331.416 86.75C329.116 85.15 326.016 84.35 322.116 84.35C319.116 84.35 315.816 84.75 312.216 85.55C308.716 86.35 304.916 87.6 300.816 89.3L295.866 74.6C305.966 70.5 315.116 68.45 323.316 68.45C330.716 68.45 336.416 69.7 340.416 72.2C344.516 74.7 347.366 78 348.966 82.1C350.566 86.2 351.366 90.6 351.366 95.3V124.55C351.366 126.05 351.766 127.5 352.566 128.9C353.466 130.2 355.166 130.85 357.666 130.85H359.316V146.75H355.866ZM308.766 124.4C308.766 127.1 309.366 129.25 310.566 130.85C311.766 132.35 313.516 133.1 315.816 133.1C318.116 133.1 320.716 132.5 323.616 131.3C326.516 130.1 330.266 127.3 334.866 122.9V116.45C329.666 115.55 324.566 115.1 319.566 115.1C315.666 115.1 312.866 115.9 311.166 117.5C309.566 119.1 308.766 121.4 308.766 124.4ZM442.841 111.95C442.841 122.85 440.141 131.5 434.741 137.9C429.341 144.3 421.441 147.5 411.041 147.5C400.241 147.5 389.291 144.5 378.191 138.5V35H395.441V80C400.041 75.4 403.991 72.35 407.291 70.85C410.591 69.25 413.991 68.45 417.491 68.45C425.491 68.45 431.691 71.55 436.091 77.75C440.591 83.95 442.841 92.65 442.841 103.85V111.95ZM412.841 84.5C410.441 84.5 407.891 85.2 405.191 86.6C402.591 88 399.341 90.75 395.441 94.85V128.9C398.141 130 400.591 130.8 402.791 131.3C405.091 131.8 407.341 132.05 409.541 132.05C415.141 132.05 419.141 130.25 421.541 126.65C423.941 123.05 425.141 118.15 425.141 111.95V103.85C425.141 97.15 424.041 92.25 421.841 89.15C419.741 86.05 416.741 84.5 412.841 84.5ZM524.827 146.75C519.727 146.75 515.627 145.7 512.527 143.6C509.527 141.5 507.327 138.9 505.927 135.8C501.627 139.8 497.477 142.75 493.477 144.65C489.477 146.55 485.177 147.5 480.577 147.5C473.877 147.5 468.927 145.35 465.727 141.05C462.627 136.75 461.077 131.3 461.077 124.7C461.077 120.3 461.877 116.45 463.477 113.15C465.177 109.75 467.927 107.1 471.727 105.2C475.527 103.3 480.727 102.35 487.327 102.35C489.927 102.35 492.627 102.55 495.427 102.95C498.227 103.25 501.027 103.65 503.827 104.15V95.3C503.827 91.1 502.677 88.25 500.377 86.75C498.077 85.15 494.977 84.35 491.077 84.35C488.077 84.35 484.777 84.75 481.177 85.55C477.677 86.35 473.877 87.6 469.777 89.3L464.827 74.6C474.927 70.5 484.077 68.45 492.277 68.45C499.677 68.45 505.377 69.7 509.377 72.2C513.477 74.7 516.327 78 517.927 82.1C519.527 86.2 520.327 90.6 520.327 95.3V124.55C520.327 126.05 520.727 127.5 521.527 128.9C522.427 130.2 524.127 130.85 526.627 130.85H528.277V146.75H524.827ZM477.727 124.4C477.727 127.1 478.327 129.25 479.527 130.85C480.727 132.35 482.477 133.1 484.777 133.1C487.077 133.1 489.677 132.5 492.577 131.3C495.477 130.1 499.227 127.3 503.827 122.9V116.45C498.627 115.55 493.527 115.1 488.527 115.1C484.627 115.1 481.827 115.9 480.127 117.5C478.527 119.1 477.727 121.4 477.727 124.4ZM590.652 85.7C585.952 85.7 581.452 86.45 577.152 87.95C572.952 89.35 568.902 91.65 565.002 94.85V146H547.752V69.95H564.102V81.65C569.202 76.85 573.752 73.45 577.752 71.45C581.752 69.45 586.052 68.45 590.652 68.45V85.7ZM667.86 146.75C662.76 146.75 658.66 145.7 655.56 143.6C652.56 141.5 650.36 138.9 648.96 135.8C644.66 139.8 640.51 142.75 636.51 144.65C632.51 146.55 628.21 147.5 623.61 147.5C616.91 147.5 611.96 145.35 608.76 141.05C605.66 136.75 604.11 131.3 604.11 124.7C604.11 120.3 604.91 116.45 606.51 113.15C608.21 109.75 610.96 107.1 614.76 105.2C618.56 103.3 623.76 102.35 630.36 102.35C632.96 102.35 635.66 102.55 638.46 102.95C641.26 103.25 644.06 103.65 646.86 104.15V95.3C646.86 91.1 645.71 88.25 643.41 86.75C641.11 85.15 638.01 84.35 634.11 84.35C631.11 84.35 627.81 84.75 624.21 85.55C620.71 86.35 616.91 87.6 612.81 89.3L607.86 74.6C617.96 70.5 627.11 68.45 635.31 68.45C642.71 68.45 648.41 69.7 652.41 72.2C656.51 74.7 659.36 78 660.96 82.1C662.56 86.2 663.36 90.6 663.36 95.3V124.55C663.36 126.05 663.76 127.5 664.56 128.9C665.46 130.2 667.16 130.85 669.66 130.85H671.31V146.75H667.86ZM620.76 124.4C620.76 127.1 621.36 129.25 622.56 130.85C623.76 132.35 625.51 133.1 627.81 133.1C630.11 133.1 632.71 132.5 635.61 131.3C638.51 130.1 642.26 127.3 646.86 122.9V116.45C641.66 115.55 636.56 115.1 631.56 115.1C627.66 115.1 624.86 115.9 623.16 117.5C621.56 119.1 620.76 121.4 620.76 124.4ZM642.51 59.15H627.36L641.76 34.25L657.96 41.15L642.51 59.15Z" fill="#005DA8"/>
<path d="M234.743 217V203.224H222.551V217H216.791V184.36H222.551V197.704H234.743V184.36H240.503V217H234.743ZM274.518 197.224V204.088C274.518 208.248 273.478 211.528 271.398 213.928C269.318 216.296 266.278 217.48 262.278 217.48C258.246 217.48 255.19 216.296 253.11 213.928C251.062 211.528 250.038 208.248 250.038 204.088V197.224C250.038 193.064 251.062 189.8 253.11 187.432C255.19 185.064 258.246 183.88 262.278 183.88C266.278 183.88 269.318 185.064 271.398 187.432C273.478 189.8 274.518 193.064 274.518 197.224ZM268.614 197.224C268.614 194.6 268.102 192.632 267.078 191.32C266.054 189.976 264.454 189.304 262.278 189.304C260.102 189.304 258.502 189.976 257.478 191.32C256.454 192.632 255.942 194.6 255.942 197.224V204.088C255.942 206.712 256.454 208.696 257.478 210.04C258.502 211.384 260.102 212.056 262.278 212.056C264.454 212.056 266.054 211.384 267.078 210.04C268.102 208.696 268.614 206.712 268.614 204.088V197.224ZM291.157 212.152C294.869 212.152 296.725 210.776 296.725 208.024C296.725 206.904 296.437 206.024 295.861 205.384C295.317 204.744 294.293 204.184 292.789 203.704L288.853 202.408C284.149 200.872 281.797 197.784 281.797 193.144C281.797 190.456 282.629 188.248 284.293 186.52C285.989 184.76 288.629 183.88 292.213 183.88C293.717 183.88 295.205 184.056 296.677 184.408C298.149 184.728 299.717 185.256 301.381 185.992L299.605 190.936C298.069 190.328 296.757 189.896 295.669 189.64C294.613 189.352 293.525 189.208 292.405 189.208C290.933 189.208 289.765 189.48 288.901 190.024C288.069 190.536 287.653 191.48 287.653 192.856C287.653 193.88 287.941 194.728 288.517 195.4C289.125 196.04 290.117 196.584 291.493 197.032L295.429 198.328C297.797 199.128 299.573 200.296 300.757 201.832C301.973 203.336 302.581 205.336 302.581 207.832C302.581 210.712 301.669 213.048 299.845 214.84C298.021 216.6 295.157 217.48 291.253 217.48C289.717 217.48 288.117 217.304 286.453 216.952C284.821 216.568 283.029 215.928 281.077 215.032L282.853 210.088C284.645 210.856 286.165 211.4 287.413 211.72C288.693 212.008 289.941 212.152 291.157 212.152ZM310.817 217V184.36H321.569C324.993 184.36 327.553 185.224 329.249 186.952C330.977 188.68 331.841 190.984 331.841 193.864V196.408C331.841 199.288 330.977 201.608 329.249 203.368C327.553 205.096 324.993 205.96 321.569 205.96H316.577V217H310.817ZM321.569 189.88H316.577V200.44H321.569C322.977 200.44 324.049 200.088 324.785 199.384C325.553 198.68 325.937 197.688 325.937 196.408V193.864C325.937 192.616 325.553 191.64 324.785 190.936C324.049 190.232 322.977 189.88 321.569 189.88ZM346.059 217H340.299V184.36H346.059V217ZM353.097 189.88V184.36H377.097V189.88H367.977V217H362.217V189.88H353.097ZM398.406 217L396.39 210.616H385.206L383.19 217H377.478L388.374 184.36H393.462L404.406 217H398.406ZM388.326 200.632L386.838 205.336H394.71L393.222 200.632L390.822 192.376L388.326 200.632ZM430.594 211.48V217H411.778V184.36H417.538V211.48H430.594Z" fill="#035AA5"/>
<path d="M455.316 217H449.556V184.36H455.316V217ZM466.241 217V184.36H471.521C474.049 187.656 476.449 191.144 478.721 194.824C480.993 198.472 483.057 202.232 484.913 206.104L484.481 196.36V184.36H490.001V217H484.721C482.673 212.968 480.545 208.92 478.337 204.856C476.161 200.76 473.841 196.904 471.377 193.288L471.761 204.52V217H466.241ZM517.631 204.472H506.687V217H500.927V184.36H519.071V189.88H506.687V198.952H517.631V204.472ZM543.004 217L540.988 210.616H529.804L527.788 217H522.076L532.972 184.36H538.06L549.004 217H543.004ZM532.924 200.632L531.436 205.336H539.308L537.82 200.632L535.42 192.376L532.924 200.632ZM556.376 217V184.36H561.656C564.184 187.656 566.584 191.144 568.856 194.824C571.128 198.472 573.192 202.232 575.048 206.104L574.616 196.36V184.36H580.136V217H574.856C572.808 212.968 570.68 208.92 568.472 204.856C566.296 200.76 563.976 196.904 561.512 193.288L561.896 204.52V217H556.376ZM587.174 189.88V184.36H611.174V189.88H602.054V217H596.294V189.88H587.174ZM624.008 217H618.248V184.36H624.008V217ZM653.749 211.48V217H634.933V184.36H640.693V211.48H653.749Z" fill="#76B827"/>
</svg>
